# xmcd CD database file
#
# Track frame offsets:
#	150
#	22643
#	36982
#	67440
#	96152
#	117620
#	149919
#	170733
#	198195
#	217866
#	232653
#
# Disc length: 3188 seconds
#
# Revision: 0
# Processed by: cddbd v1.5.1PL0 Copyright (c) Steve Scherf et al.
# Submitted via: CDex 1.51
#
DISCID=a00c720b
DTITLE=Ornette Coleman - Jazz come libertà
DYEAR=2005
DGENRE=Jazz
TTITLE0=Lonely woman
TTITLE1=Tomorrow is the question!
TTITLE2=Congeniality
TTITLE3=Free
TTITLE4=The Blessing
TTITLE5=Beauty is a rare thing
TTITLE6=T. and T.
TTITLE7=Civilization day
TTITLE8=3 wishes
TTITLE9=Rock the clock
TTITLE10=Spelling the alphabet
EXTD=YEAR: 2005
EXTT0=
EXTT1=
EXTT2=
EXTT3=
EXTT4=
EXTT5=
EXTT6=
EXTT7=
EXTT8=
EXTT9=
EXTT10=
PLAYORDER=
